<svg width="30" height="30" viewBox="0 0 30 30" fill="none" xmlns="http://www.w3.org/2000/svg">
<path d="M3.0625 26.4375V26.9375H3.5625H26.4375H26.9375V26.4375V24.375C26.9375 24.0345 26.7404 23.7419 26.5455 23.5261C26.3361 23.2943 26.0482 23.0627 25.7111 22.8377C25.034 22.3856 24.0906 21.9154 22.987 21.4897C20.7793 20.6383 17.8585 19.9375 15 19.9375C12.1415 19.9375 9.22065 20.6383 7.01304 21.4897C5.90936 21.9154 4.96599 22.3856 4.28889 22.8377C3.9518 23.0627 3.66394 23.2943 3.45451 23.5261C3.25957 23.7419 3.0625 24.0345 3.0625 24.375V26.4375ZM15 0.5C16.8565 0.5 18.637 1.2375 19.9497 2.55025C21.2625 3.86301 22 5.64348 22 7.5C22 9.35651 21.2625 11.137 19.9497 12.4497C18.637 13.7625 16.8565 14.5 15 14.5C13.1435 14.5 11.363 13.7625 10.0503 12.4497C8.7375 11.137 8 9.35651 8 7.5C8 5.64348 8.7375 3.86301 10.0503 2.55025C11.363 1.2375 13.1435 0.5 15 0.5ZM15 3.25C13.8728 3.25 12.7918 3.69777 11.9948 4.4948C11.1978 5.29183 10.75 6.37283 10.75 7.5C10.75 8.62717 11.1978 9.70817 11.9948 10.5052C12.7918 11.3022 13.8728 11.75 15 11.75C16.1272 11.75 17.2082 11.3022 18.0052 10.5052C18.8022 9.70817 19.25 8.62717 19.25 7.5C19.25 6.37283 18.8022 5.29183 18.0052 4.4948C17.2082 3.69777 16.1272 3.25 15 3.25ZM15 17.375C17.4411 17.375 21.128 17.9869 24.1917 19.2119C25.7232 19.8243 27.0675 20.5776 28.021 21.4584C28.9708 22.3359 29.5 23.3065 29.5 24.375V29.5H0.5V24.375C0.5 23.3065 1.02918 22.3359 1.97903 21.4584C2.93248 20.5776 4.2768 19.8243 5.80829 19.2119C8.87203 17.9869 12.5589 17.375 15 17.375Z" fill="black" stroke="black"/>
</svg>
