<svg width="38" height="34" viewBox="0 0 38 34" fill="none" xmlns="http://www.w3.org/2000/svg">
<path d="M37.1663 8.30813C36.9938 8.05889 36.7635 7.85517 36.4951 7.71443C36.2266 7.57369 35.9281 7.50011 35.625 7.50001H9.99938L7.83563 2.30626C7.55192 1.6223 7.0715 1.03799 6.4553 0.627404C5.83909 0.216821 5.11484 -0.00153945 4.37438 8.16982e-06H0V3.75001H4.37438L13.2694 25.0969C13.4118 25.4384 13.6522 25.7302 13.9602 25.9354C14.2681 26.1406 14.6299 26.25 15 26.25H30C30.7819 26.25 31.4813 25.7644 31.7569 25.035L37.3819 10.035C37.4882 9.75117 37.5241 9.44579 37.4865 9.14504C37.449 8.84428 37.3391 8.55711 37.1663 8.30813ZM28.7006 22.5H16.2506L11.5631 11.25H32.9194L28.7006 22.5Z" fill="black"/>
<path d="M15.9375 33.75C17.4908 33.75 18.75 32.4908 18.75 30.9375C18.75 29.3842 17.4908 28.125 15.9375 28.125C14.3842 28.125 13.125 29.3842 13.125 30.9375C13.125 32.4908 14.3842 33.75 15.9375 33.75Z" fill="black"/>
<path d="M29.0625 33.75C30.6158 33.75 31.875 32.4908 31.875 30.9375C31.875 29.3842 30.6158 28.125 29.0625 28.125C27.5092 28.125 26.25 29.3842 26.25 30.9375C26.25 32.4908 27.5092 33.75 29.0625 33.75Z" fill="black"/>
</svg>
