<svg width="16" height="17" viewBox="0 0 16 17" fill="none" xmlns="http://www.w3.org/2000/svg">
<path d="M5.33458 1.73187C5.33458 1.50167 5.3582 1.36354 5.75685 1.36354H11.0997C12.0301 1.36354 12.5454 2.14979 12.9176 3.62525L13.2182 4.80533H14.1272C14.2918 1.45633 14.4349 0 14.4349 0C14.4349 0 12.1475 0.255 10.7919 0.255H3.95754L0.297363 0.138833V1.10925L1.53198 1.34017C2.39799 1.51017 2.60555 1.6915 2.67712 2.47775C2.67712 2.47775 2.75585 4.794 2.75585 8.59775C2.75585 12.4121 2.69144 14.6965 2.69144 14.6965C2.69144 15.3857 2.41231 15.6407 1.55345 15.8107L0.320982 16.0445V17L3.99261 16.8831H10.112C11.4969 16.8831 14.6854 17 14.6854 17C14.7606 16.1712 15.2222 12.41 15.2974 11.9963H14.4385L13.5195 14.0576C12.8002 15.6726 11.7474 15.7895 10.5779 15.7895H7.06662C5.9 15.7895 5.33816 15.3361 5.33816 14.3374V9.06667C5.33816 9.06667 7.92906 9.06667 8.76644 9.13467C9.41918 9.18 9.81354 9.36487 10.0261 10.2666L10.3052 11.4672H11.3144L11.25 8.43696L11.3874 5.38758H10.3918L10.0698 6.72633C9.86722 7.6075 9.72622 7.76758 8.8144 7.85967C7.62201 7.98008 5.36822 7.95883 5.36822 7.95883V1.73542H5.33243L5.33458 1.73187Z" fill="#386548"/>
</svg>
