<svg width="18" height="18" viewBox="0 0 18 18" fill="none" xmlns="http://www.w3.org/2000/svg">
<path d="M9.60477 0.00110732C10.225 -0.0014128 10.8453 0.00518768 11.4653 0.0209067L11.6302 0.0272065C11.8206 0.0344062 12.0084 0.0434059 12.2354 0.0542055C13.1397 0.099204 13.7568 0.250399 14.2982 0.472691C14.8592 0.701284 15.3318 1.01087 15.8043 1.51126C16.2364 1.96089 16.5709 2.50477 16.7843 3.1051C16.9943 3.67838 17.1371 4.33266 17.1796 5.29023C17.1898 5.52962 17.1983 5.72941 17.2051 5.93101L17.2102 6.1056C17.2253 6.76185 17.2318 7.41829 17.2297 8.07473L17.2306 8.74611V9.92507C17.2327 10.5818 17.2262 11.2386 17.211 11.8951L17.2059 12.0697C17.1991 12.2713 17.1906 12.4702 17.1804 12.7105C17.1379 13.668 16.9934 14.3214 16.7843 14.8947C16.5716 15.4957 16.2371 16.04 15.8043 16.4894C15.3793 16.9469 14.8654 17.301 14.2982 17.5271C13.7568 17.7494 13.1397 17.9006 12.2354 17.9456C12.0084 17.9564 11.8206 17.9654 11.6302 17.9726L11.4653 17.978C10.8453 17.994 10.225 18.0009 9.60477 17.9987L8.9707 17.9996H7.8581C7.23786 18.0018 6.61762 17.9949 5.99755 17.9789L5.83266 17.9735C5.63089 17.9658 5.42916 17.9568 5.22749 17.9465C4.32314 17.9015 3.70607 17.7485 3.1638 17.5271C2.59661 17.3015 2.08285 16.9474 1.65852 16.4894C1.22593 16.0397 0.891204 15.4955 0.677675 14.8947C0.467735 14.3214 0.324943 13.668 0.282445 12.7105C0.272979 12.4969 0.264479 12.2833 0.256946 12.0697L0.252696 11.8951C0.237026 11.2386 0.229943 10.5818 0.231447 9.92507V8.07473C0.229075 7.4183 0.235309 6.76185 0.250147 6.1056L0.256096 5.93101C0.262896 5.72941 0.271395 5.52962 0.281595 5.29023C0.324093 4.33176 0.466885 3.67928 0.676824 3.1051C0.89048 2.50448 1.22587 1.96074 1.65937 1.51216C2.08341 1.05385 2.59684 0.699099 3.1638 0.472691C3.70607 0.250399 4.32229 0.099204 5.22749 0.0542055L5.83266 0.0272065L5.99755 0.0227067C6.61732 0.00612283 7.23729 -0.00137772 7.85726 0.000207414L9.60477 0.00110732ZM8.73101 4.50095C8.16792 4.49252 7.60886 4.60267 7.08633 4.825C6.56379 5.04734 6.0882 5.37742 5.68719 5.79606C5.28617 6.2147 4.96774 6.71356 4.7504 7.26365C4.53305 7.81373 4.42113 8.40407 4.42113 9.00035C4.42113 9.59663 4.53305 10.187 4.7504 10.7371C4.96774 11.2871 5.28617 11.786 5.68719 12.2046C6.0882 12.6233 6.56379 12.9534 7.08633 13.1757C7.60886 13.398 8.16792 13.5082 8.73101 13.4997C9.85812 13.4997 10.9391 13.0257 11.7361 12.1818C12.533 11.3379 12.9808 10.1933 12.9808 8.9999C12.9808 7.80647 12.533 6.66191 11.7361 5.81803C10.9391 4.97414 9.85812 4.50095 8.73101 4.50095ZM8.73101 6.30089C9.06972 6.29428 9.40629 6.35921 9.72104 6.49187C10.0358 6.62454 10.3224 6.82228 10.5642 7.07356C10.8059 7.32483 10.998 7.6246 11.1291 7.95534C11.2602 8.28609 11.3278 8.64119 11.3279 8.99989C11.3279 9.3586 11.2605 9.71372 11.1294 10.0445C10.9984 10.3753 10.8065 10.6751 10.5648 10.9265C10.3231 11.1779 10.0365 11.3757 9.72183 11.5085C9.40712 11.6413 9.07058 11.7063 8.73186 11.6998C8.05559 11.6998 7.40702 11.4154 6.92883 10.909C6.45064 10.4027 6.18199 9.71596 6.18199 8.9999C6.18199 8.28384 6.45064 7.59711 6.92883 7.09078C7.40702 6.58445 8.05559 6.29999 8.73186 6.29999L8.73101 6.30089ZM13.1933 3.151C12.9191 3.16262 12.6598 3.28613 12.4696 3.49566C12.2795 3.70519 12.1733 3.98449 12.1733 4.27506C12.1733 4.56563 12.2795 4.84493 12.4696 5.05446C12.6598 5.26399 12.9191 5.3875 13.1933 5.39912C13.4751 5.39912 13.7453 5.2806 13.9445 5.06963C14.1438 4.85866 14.2557 4.57252 14.2557 4.27416C14.2557 3.9758 14.1438 3.68967 13.9445 3.47869C13.7453 3.26772 13.4751 3.1492 13.1933 3.1492V3.151Z" fill="#386548"/>
</svg>
