<svg width="25" height="36" viewBox="0 0 25 36" fill="none" xmlns="http://www.w3.org/2000/svg">
<path d="M12.5 16.9643C11.316 16.9643 10.1805 16.4939 9.34327 15.6567C8.50606 14.8195 8.03571 13.684 8.03571 12.5C8.03571 11.316 8.50606 10.1805 9.34327 9.34327C10.1805 8.50606 11.316 8.03572 12.5 8.03572C13.684 8.03572 14.8195 8.50606 15.6567 9.34327C16.4939 10.1805 16.9643 11.316 16.9643 12.5C16.9643 13.0863 16.8488 13.6668 16.6245 14.2084C16.4001 14.75 16.0713 15.2422 15.6567 15.6567C15.2422 16.0713 14.75 16.4001 14.2084 16.6245C13.6668 16.8488 13.0863 16.9643 12.5 16.9643ZM12.5 0C9.18479 0 6.00537 1.31696 3.66116 3.66117C1.31696 6.00537 0 9.18479 0 12.5C0 21.875 12.5 35.7143 12.5 35.7143C12.5 35.7143 25 21.875 25 12.5C25 9.18479 23.683 6.00537 21.3388 3.66117C18.9946 1.31696 15.8152 0 12.5 0Z" fill="#052710"/>
</svg>
