<svg width="27" height="27" viewBox="0 0 27 27" fill="none" xmlns="http://www.w3.org/2000/svg">
<path d="M26 19.75V26C21.6906 26 18.0781 25.2266 15.0625 23.9297C9.06094 21.3484 5.4125 16.6953 3.34375 11.9375C1.625 7.9875 1 3.96563 1 1H7.25L8.8125 7.25L3.34375 11.9375C5.4125 16.6953 9.06094 21.3484 15.0625 23.9297L19.75 18.1875L26 19.75Z" fill="#052710"/>
<path d="M15.0625 23.9297C18.0781 25.2266 21.6906 26 26 26V19.75L19.75 18.1875L15.0625 23.9297ZM15.0625 23.9297C9.06094 21.3484 5.4125 16.6953 3.34375 11.9375M3.34375 11.9375C1.625 7.9875 1 3.96563 1 1H7.25L8.8125 7.25L3.34375 11.9375Z" stroke="#052710" stroke-width="2" stroke-linecap="round" stroke-linejoin="round"/>
</svg>
